<svg width="120" height="123" viewBox="0 0 120 123" fill="none" xmlns="http://www.w3.org/2000/svg">
<path d="M35.98 119.54C35.1533 119.54 34.3867 119.327 33.68 118.9C32.9733 118.487 32.4133 117.927 32 117.22C31.5867 116.513 31.38 115.753 31.38 114.94C31.38 114.26 31.5267 113.613 31.82 113C32.1267 112.373 32.5467 111.847 33.08 111.42L38.86 107.14L36.02 105.8C35.9133 105.747 35.7933 105.7 35.66 105.66C35.5267 105.607 35.3933 105.58 35.26 105.58C35.06 105.58 34.8533 105.633 34.64 105.74C34.44 105.833 34.2533 105.96 34.08 106.12L32.74 107.62L31.3 106.38L32.66 104.74C32.98 104.353 33.3667 104.06 33.82 103.86C34.2733 103.66 34.7533 103.56 35.26 103.56C35.6067 103.56 35.8933 103.6 36.12 103.68C36.3467 103.747 36.58 103.84 36.82 103.96L41.16 106C41.2667 106.04 41.3867 106.06 41.52 106.06H43.12V108.06H41.02L34.52 112.84C33.88 113.387 33.56 114.08 33.56 114.92C33.56 115.373 33.6733 115.793 33.9 116.18C34.14 116.58 34.4533 116.893 34.84 117.12C35.24 117.36 35.6733 117.48 36.14 117.48H41.96V119.54H35.98ZM38.38 114.56H40.14V116.2H38.38V114.56ZM37.22 112.12H38.96V113.9H37.22V112.12ZM39.64 112.12H41.38V113.9H39.64V112.12ZM45.2244 99.72H47.2844V113H45.2244V99.72ZM50.9808 116.56C52.2208 116.027 53.1341 115.593 53.7208 115.26C54.3208 114.94 54.7408 114.607 54.9808 114.26C55.2341 113.927 55.3608 113.507 55.3608 113H53.5208C52.7741 113 52.0874 112.833 51.4608 112.5C50.8474 112.153 50.3541 111.68 49.9808 111.08C49.6208 110.48 49.4408 109.813 49.4408 109.08C49.4408 108.347 49.6208 107.673 49.9808 107.06C50.3541 106.447 50.8474 105.96 51.4608 105.6C52.0874 105.227 52.7741 105.04 53.5208 105.04C54.2408 105.04 54.9008 105.22 55.5008 105.58C56.1008 105.94 56.5674 106.433 56.9008 107.06C57.2474 107.673 57.4208 108.347 57.4208 109.08V112.18C57.4208 113.287 57.2208 114.187 56.8208 114.88C56.4341 115.573 55.8474 116.16 55.0608 116.64C54.2874 117.133 53.1408 117.713 51.6208 118.38L50.9808 116.56ZM55.3608 110.94V109.08C55.3608 108.56 55.1808 108.12 54.8208 107.76C54.4608 107.387 54.0274 107.2 53.5208 107.2C52.9874 107.2 52.5341 107.387 52.1608 107.76C51.8008 108.12 51.6208 108.56 51.6208 109.08C51.6208 109.613 51.8008 110.06 52.1608 110.42C52.5341 110.767 52.9874 110.94 53.5208 110.94H55.3608ZM69.5642 116.72C68.4842 116.72 67.4842 116.447 66.5642 115.9C65.6442 115.367 64.9109 114.64 64.3642 113.72C63.8309 112.8 63.5642 111.8 63.5642 110.72V106.98H65.6242V110.6C65.6242 111.32 65.7976 111.987 66.1442 112.6C66.5042 113.2 66.9842 113.673 67.5842 114.02C68.1976 114.38 68.8576 114.56 69.5642 114.56C70.2842 114.56 70.9442 114.38 71.5442 114.02C72.1576 113.673 72.6376 113.2 72.9842 112.6C73.3442 111.987 73.5242 111.32 73.5242 110.6V99.7H75.5242V110.72C75.5242 111.8 75.2576 112.8 74.7242 113.72C74.2042 114.64 73.4842 115.367 72.5642 115.9C71.6576 116.447 70.6576 116.72 69.5642 116.72ZM77.0442 113C76.1242 113 75.4442 112.68 75.0042 112.04C74.5776 111.4 74.3642 110.56 74.3642 109.52V99.72H75.6042V109.4C75.6042 109.8 75.7442 110.14 76.0242 110.42C76.3042 110.687 76.6442 110.82 77.0442 110.82H77.9442C78.0776 110.82 78.1442 110.887 78.1442 111.02V112.8C78.1442 112.933 78.0776 113 77.9442 113H77.0442ZM77.9492 113C77.8159 113 77.7492 112.933 77.7492 112.8V111.02C77.7492 110.887 77.8159 110.82 77.9492 110.82H79.6492C80.0492 110.82 80.3826 110.68 80.6492 110.4C80.9292 110.12 81.0692 109.78 81.0692 109.38V105.58H83.1292V109.5C83.1292 110.14 82.9759 110.727 82.6692 111.26C82.3626 111.793 81.9426 112.22 81.4092 112.54C80.8759 112.847 80.2892 113 79.6492 113H77.9492ZM79.5092 117.88H81.5292V119.9H79.5092V117.88ZM77.9492 114.8H79.9892V116.84H77.9492V114.8ZM81.0292 114.8H83.0492V116.84H81.0292V114.8ZM85.322 99.72H87.382V113H85.322V99.72Z" fill="black"/>
<rect width="120" height="78"/>
</svg>
