<svg width="34" height="30" viewBox="0 0 34 30" fill="none" xmlns="http://www.w3.org/2000/svg">
<path d="M12.8 13.5833C13.2166 13.7666 13.65 13.8833 14.0833 13.9833V29.85C13.8167 29.7833 13.5501 29.6833 13.3001 29.5666L3.30006 25.1166C1.50006 24.3166 0.333344 22.5333 0.333344 20.5499V9.44999C0.333344 8.99999 0.399986 8.54998 0.516652 8.13331L12.8 13.5833ZM28.8834 5.9333C28.45 5.49997 27.95 5.13329 27.3666 4.88329L17.3666 0.433319C16.0666 -0.150014 14.6001 -0.150014 13.3001 0.433319L3.30006 4.88329C2.71673 5.13329 2.21667 5.49997 1.78334 5.9333L13.7999 11.2833C14.7666 11.7166 15.8834 11.7166 16.8667 11.2833L28.8834 5.9333ZM17.9316 21.96C18.5449 17.6583 22.3149 14.325 26.6566 14.1733C27.7166 14.1366 28.7267 14.2717 29.6733 14.565C30.0017 14.6667 30.3333 14.4433 30.3333 14.1V9.44999C30.3333 8.99999 30.2667 8.54998 30.15 8.13331L17.8667 13.5833C17.45 13.75 17.0167 13.8833 16.5833 13.9833V29.85C16.615 29.87 16.6149 29.87 16.6466 29.89L18.9867 28.8383C19.265 28.7133 19.3567 28.375 19.195 28.115C18.105 26.3616 17.6049 24.2466 17.9316 21.96ZM33.6667 23.3333C33.6667 27.0166 30.6833 30 27 30C23.3167 30 20.3333 27.0166 20.3333 23.3333C20.3333 19.65 23.3167 16.6666 27 16.6666C30.6833 16.6666 33.6667 19.65 33.6667 23.3333ZM29.6666 21.35C29.35 21.0333 28.8167 21.0333 28.5001 21.35L26.2999 23.5333L25.5 22.75C25.1833 22.4166 24.6501 22.4166 24.3334 22.75C24.0001 23.0666 24.0001 23.6 24.3334 23.9166L25.7166 25.3166C25.8666 25.4666 26.0833 25.5499 26.2999 25.5499C26.5333 25.5499 26.7332 25.4666 26.8999 25.3166L29.6666 22.5333C30 22.2 30 21.6833 29.6666 21.35Z" fill="#6D7CAA"/>
</svg>
