<svg width="25" height="25" viewBox="0 0 25 25" fill="none" xmlns="http://www.w3.org/2000/svg">
<path d="M21.97 20.7942L18.129 16.9532C19.413 15.4302 20.19 13.4672 20.19 11.3242C20.19 6.49922 16.265 2.57422 11.44 2.57422C6.615 2.57422 2.69 6.49922 2.69 11.3242C2.69 16.1492 6.615 20.0742 11.44 20.0742C13.583 20.0742 15.546 19.2972 17.069 18.0132L20.91 21.8542C21.056 22.0002 21.248 22.0742 21.44 22.0742C21.632 22.0742 21.824 22.0012 21.97 21.8542C22.263 21.5622 22.263 21.0872 21.97 20.7942ZM4.19 11.3242C4.19 7.32622 7.442 4.07422 11.44 4.07422C15.438 4.07422 18.69 7.32622 18.69 11.3242C18.69 15.3222 15.438 18.5742 11.44 18.5742C7.442 18.5742 4.19 15.3222 4.19 11.3242Z" fill="#243B81"/>
</svg>
