<svg width="40" height="40" viewBox="0 0 40 40" fill="none" xmlns="http://www.w3.org/2000/svg">
<mask id="path-1-inside-1_109_46" fill="white">
<path d="M31.6667 31.6667C31.6667 33.5083 30.1733 35 28.3333 35C26.4933 35 25 33.5083 25 31.6667C25 29.825 26.4933 28.3333 28.3333 28.3333C30.1733 28.3333 31.6667 29.825 31.6667 31.6667ZM11.6667 28.3333C9.82667 28.3333 8.33333 29.825 8.33333 31.6667C8.33333 33.5083 9.82667 35 11.6667 35C13.5067 35 15 33.5083 15 31.6667C15 29.825 13.5067 28.3333 11.6667 28.3333ZM36.25 22.6334V27.5C36.25 28.7 35.6834 29.75 34.8167 30.4334C34.7167 30.5167 34.5334 30.6 34.4167 30.6C34.2167 30.6 34.0334 30.5 33.9834 30.2833C33.3834 27.7333 31.0667 25.8333 28.3333 25.8333C25.4 25.8333 22.9851 27.9984 22.5667 30.815C22.5301 31.0617 22.3333 31.25 22.0833 31.25H17.9167C17.6667 31.25 17.4699 31.0617 17.4333 30.815C17.0166 27.9984 14.6 25.8333 11.6667 25.8333C8.93333 25.8333 6.61664 27.7333 6.01664 30.2833C5.96664 30.4833 5.76659 30.6167 5.54993 30.6C5.46659 30.6 5.26664 30.5 5.18331 30.4334C4.31664 29.75 3.75 28.7 3.75 27.5V23.4167C3.75 23.14 3.97341 22.9167 4.25008 22.9167H16.6667C17.35 22.9167 17.9167 22.35 17.9167 21.6667C17.9167 20.9833 17.35 20.4167 16.6667 20.4167H4.25008C3.97341 20.4167 3.75 20.1934 3.75 19.9167V9.16666C3.75 7.10499 5.43667 5.41666 7.5 5.41666H20.8333C22.8967 5.41666 24.5833 7.10499 24.5833 9.16666V12.0833H28.2833C32.5166 12.0833 33.3166 14.0833 34.0833 16.0166L35.8167 20.3C35.9333 20.6167 36.0334 20.95 36.1001 21.2667C36.1334 21.3667 36.1666 21.4834 36.1666 21.6C36.2166 21.9334 36.25 22.2834 36.25 22.6334ZM33.1667 20.4167L31.7501 16.95C31.0501 15.1833 30.8166 14.5833 28.2833 14.5833H24.5833V20.4167H33.1667Z"/>
</mask>
<path d="M31.6667 31.6667C31.6667 33.5083 30.1733 35 28.3333 35C26.4933 35 25 33.5083 25 31.6667C25 29.825 26.4933 28.3333 28.3333 28.3333C30.1733 28.3333 31.6667 29.825 31.6667 31.6667ZM11.6667 28.3333C9.82667 28.3333 8.33333 29.825 8.33333 31.6667C8.33333 33.5083 9.82667 35 11.6667 35C13.5067 35 15 33.5083 15 31.6667C15 29.825 13.5067 28.3333 11.6667 28.3333ZM36.25 22.6334V27.5C36.25 28.7 35.6834 29.75 34.8167 30.4334C34.7167 30.5167 34.5334 30.6 34.4167 30.6C34.2167 30.6 34.0334 30.5 33.9834 30.2833C33.3834 27.7333 31.0667 25.8333 28.3333 25.8333C25.4 25.8333 22.9851 27.9984 22.5667 30.815C22.5301 31.0617 22.3333 31.25 22.0833 31.25H17.9167C17.6667 31.25 17.4699 31.0617 17.4333 30.815C17.0166 27.9984 14.6 25.8333 11.6667 25.8333C8.93333 25.8333 6.61664 27.7333 6.01664 30.2833C5.96664 30.4833 5.76659 30.6167 5.54993 30.6C5.46659 30.6 5.26664 30.5 5.18331 30.4334C4.31664 29.75 3.75 28.7 3.75 27.5V23.4167C3.75 23.14 3.97341 22.9167 4.25008 22.9167H16.6667C17.35 22.9167 17.9167 22.35 17.9167 21.6667C17.9167 20.9833 17.35 20.4167 16.6667 20.4167H4.25008C3.97341 20.4167 3.75 20.1934 3.75 19.9167V9.16666C3.75 7.10499 5.43667 5.41666 7.5 5.41666H20.8333C22.8967 5.41666 24.5833 7.10499 24.5833 9.16666V12.0833H28.2833C32.5166 12.0833 33.3166 14.0833 34.0833 16.0166L35.8167 20.3C35.9333 20.6167 36.0334 20.95 36.1001 21.2667C36.1334 21.3667 36.1666 21.4834 36.1666 21.6C36.2166 21.9334 36.25 22.2834 36.25 22.6334ZM33.1667 20.4167L31.7501 16.95C31.0501 15.1833 30.8166 14.5833 28.2833 14.5833H24.5833V20.4167H33.1667Z" fill="#6D7CAA"/>
<path d="M34.8167 30.4334L34.1975 29.6481L34.1869 29.6565L34.1765 29.6651L34.8167 30.4334ZM33.9834 30.2833L34.9578 30.0585L34.9568 30.0543L33.9834 30.2833ZM22.5667 30.815L23.5559 30.9621L23.5559 30.9619L22.5667 30.815ZM17.4333 30.815L16.444 30.9614L16.4441 30.9621L17.4333 30.815ZM6.01664 30.2833L6.98688 30.5259L6.99006 30.5124L6.01664 30.2833ZM5.54993 30.6L5.62662 29.6029L5.58833 29.6H5.54993V30.6ZM5.18331 30.4334L5.80802 29.6525L5.80246 29.6481L5.18331 30.4334ZM24.5833 12.0833H23.5833V13.0833H24.5833V12.0833ZM34.0833 16.0166L33.1537 16.3853L33.1563 16.3918L34.0833 16.0166ZM35.8167 20.3L36.755 19.9543L36.7495 19.9395L36.7436 19.9249L35.8167 20.3ZM36.1001 21.2667L35.1215 21.4727L35.1333 21.5287L35.1514 21.5829L36.1001 21.2667ZM36.1666 21.6H35.1666V21.6746L35.1776 21.7484L36.1666 21.6ZM33.1667 20.4167V21.4167H34.6556L34.0924 20.0384L33.1667 20.4167ZM31.7501 16.95L30.8203 17.3184L30.8244 17.3282L31.7501 16.95ZM24.5833 14.5833V13.5833H23.5833V14.5833H24.5833ZM24.5833 20.4167H23.5833V21.4167H24.5833V20.4167ZM30.6667 31.6667C30.6667 32.9557 29.6214 34 28.3333 34V36C30.7253 36 32.6667 34.061 32.6667 31.6667H30.6667ZM28.3333 34C27.0453 34 26 32.9557 26 31.6667H24C24 34.061 25.9414 36 28.3333 36V34ZM26 31.6667C26 30.3776 27.0453 29.3333 28.3333 29.3333V27.3333C25.9414 27.3333 24 29.2724 24 31.6667H26ZM28.3333 29.3333C29.6214 29.3333 30.6667 30.3776 30.6667 31.6667H32.6667C32.6667 29.2724 30.7253 27.3333 28.3333 27.3333V29.3333ZM11.6667 27.3333C9.27471 27.3333 7.33333 29.2724 7.33333 31.6667H9.33333C9.33333 30.3776 10.3786 29.3333 11.6667 29.3333V27.3333ZM7.33333 31.6667C7.33333 34.061 9.27471 36 11.6667 36V34C10.3786 34 9.33333 32.9557 9.33333 31.6667H7.33333ZM11.6667 36C14.0586 36 16 34.061 16 31.6667H14C14 32.9557 12.9547 34 11.6667 34V36ZM16 31.6667C16 29.2724 14.0586 27.3333 11.6667 27.3333V29.3333C12.9547 29.3333 14 30.3776 14 31.6667H16ZM35.25 22.6334V27.5H37.25V22.6334H35.25ZM35.25 27.5C35.25 28.3737 34.8399 29.1416 34.1975 29.6481L35.4358 31.2186C36.5268 30.3585 37.25 29.0263 37.25 27.5H35.25ZM34.1765 29.6651C34.2012 29.6446 34.2171 29.6352 34.22 29.6335C34.2243 29.6309 34.2266 29.6298 34.2291 29.6287C34.2309 29.628 34.242 29.6232 34.2635 29.6177C34.2804 29.6133 34.3352 29.6 34.4167 29.6V31.6C34.6714 31.6 34.8914 31.5208 35.0168 31.4671C35.1572 31.4069 35.3165 31.3186 35.4569 31.2016L34.1765 29.6651ZM34.4167 29.6C34.4769 29.6 34.5855 29.6145 34.7036 29.6943C34.8364 29.784 34.926 29.9207 34.9577 30.0585L33.009 30.5082C33.192 31.3013 33.8899 31.6 34.4167 31.6V29.6ZM34.9568 30.0543C34.2517 27.0577 31.536 24.8333 28.3333 24.8333V26.8333C30.5974 26.8333 32.515 28.4089 33.0099 30.5124L34.9568 30.0543ZM28.3333 24.8333C24.8934 24.8333 22.0671 27.3723 21.5776 30.6681L23.5559 30.9619C23.9031 28.6244 25.9066 26.8333 28.3333 26.8333V24.8333ZM21.5776 30.668C21.6058 30.4781 21.7856 30.25 22.0833 30.25V32.25C22.8811 32.25 23.4543 31.6453 23.5559 30.9621L21.5776 30.668ZM22.0833 30.25H17.9167V32.25H22.0833V30.25ZM17.9167 30.25C18.2144 30.25 18.3942 30.4781 18.4224 30.668L16.4441 30.9621C16.5457 31.6453 17.1189 32.25 17.9167 32.25V30.25ZM18.4225 30.6687C17.9348 27.372 15.1062 24.8333 11.6667 24.8333V26.8333C14.0938 26.8333 16.0984 28.6248 16.444 30.9614L18.4225 30.6687ZM11.6667 24.8333C8.46403 24.8333 5.7483 27.0577 5.04322 30.0543L6.99006 30.5124C7.48498 28.4089 9.40263 26.8333 11.6667 26.8333V24.8333ZM5.0465 30.0408C5.12759 29.7164 5.41166 29.5864 5.62662 29.6029L5.47323 31.597C6.12152 31.6469 6.80569 31.2502 6.98678 30.5259L5.0465 30.0408ZM5.54993 29.6C5.63198 29.6 5.69286 29.6114 5.71962 29.617C5.75041 29.6235 5.7716 29.6301 5.78069 29.6331C5.79813 29.6388 5.80186 29.6413 5.79237 29.6368C5.78455 29.6332 5.77669 29.6289 5.77226 29.6263C5.76382 29.6213 5.77901 29.6293 5.808 29.6525L4.55861 31.2142C4.68422 31.3147 4.83142 31.395 4.94087 31.4465C5.00219 31.4754 5.07675 31.507 5.15772 31.5336C5.21744 31.5532 5.36724 31.6 5.54993 31.6V29.6ZM5.80246 29.6481C5.16008 29.1416 4.75 28.3737 4.75 27.5H2.75C2.75 29.0263 3.4732 30.3585 4.56415 31.2186L5.80246 29.6481ZM4.75 27.5V23.4167H2.75V27.5H4.75ZM4.75 23.4167C4.75 23.6925 4.52544 23.9167 4.25008 23.9167V21.9167C3.42139 21.9167 2.75 22.5874 2.75 23.4167H4.75ZM4.25008 23.9167H16.6667V21.9167H4.25008V23.9167ZM16.6667 23.9167C17.9023 23.9167 18.9167 22.9023 18.9167 21.6667H16.9167C16.9167 21.727 16.8921 21.7895 16.8408 21.8408C16.7895 21.8921 16.727 21.9167 16.6667 21.9167V23.9167ZM18.9167 21.6667C18.9167 20.4311 17.9023 19.4167 16.6667 19.4167V21.4167C16.727 21.4167 16.7895 21.4412 16.8408 21.4925C16.8921 21.5438 16.9167 21.6064 16.9167 21.6667H18.9167ZM16.6667 19.4167H4.25008V21.4167H16.6667V19.4167ZM4.25008 19.4167C4.52544 19.4167 4.75 19.6408 4.75 19.9167H2.75C2.75 20.7459 3.42139 21.4167 4.25008 21.4167V19.4167ZM4.75 19.9167V9.16666H2.75V19.9167H4.75ZM4.75 9.16666C4.75 7.65699 5.98924 6.41666 7.5 6.41666V4.41666C4.88409 4.41666 2.75 6.553 2.75 9.16666H4.75ZM7.5 6.41666H20.8333V4.41666H7.5V6.41666ZM20.8333 6.41666C22.3441 6.41666 23.5833 7.65699 23.5833 9.16666H25.5833C25.5833 6.553 23.4492 4.41666 20.8333 4.41666V6.41666ZM23.5833 9.16666V12.0833H25.5833V9.16666H23.5833ZM24.5833 13.0833H28.2833V11.0833H24.5833V13.0833ZM28.2833 13.0833C30.2409 13.0833 31.2295 13.5426 31.8147 14.0687C32.4386 14.6295 32.7578 15.3869 33.1537 16.3853L35.0128 15.648C34.6421 14.713 34.1779 13.5038 33.1518 12.5813C32.087 11.6241 30.559 11.0833 28.2833 11.0833V13.0833ZM33.1563 16.3918L34.8897 20.6751L36.7436 19.9249L35.0102 15.6415L33.1563 16.3918ZM34.8783 20.6457C34.9814 20.9255 35.0666 21.2117 35.1215 21.4727L37.0786 21.0607C37.0002 20.6883 36.8852 20.3078 36.755 19.9543L34.8783 20.6457ZM35.1514 21.5829C35.1571 21.6001 35.1612 21.6132 35.1643 21.6237C35.1673 21.6343 35.1689 21.6406 35.1695 21.6435C35.1701 21.6464 35.1695 21.6441 35.1687 21.6375C35.1678 21.6309 35.1666 21.618 35.1666 21.6H37.1666C37.1666 21.3123 37.0873 21.0663 37.0487 20.9505L35.1514 21.5829ZM35.1776 21.7484C35.2224 22.0464 35.25 22.3453 35.25 22.6334H37.25C37.25 22.2215 37.2108 21.8203 37.1555 21.4517L35.1776 21.7484ZM34.0924 20.0384L32.6758 16.5717L30.8244 17.3282L32.241 20.7949L34.0924 20.0384ZM32.6798 16.5816C32.3655 15.7885 32.0441 14.8967 31.3297 14.3239C30.5763 13.7199 29.5686 13.5833 28.2833 13.5833V15.5833C29.5313 15.5833 29.907 15.7467 30.0787 15.8844C30.2893 16.0533 30.4346 16.3447 30.8204 17.3183L32.6798 16.5816ZM28.2833 13.5833H24.5833V15.5833H28.2833V13.5833ZM23.5833 14.5833V20.4167H25.5833V14.5833H23.5833ZM24.5833 21.4167H33.1667V19.4167H24.5833V21.4167Z" fill="#6D7CAA" mask="url(#path-1-inside-1_109_46)"/>
</svg>
